<?xml version="1.0" encoding="UTF-8"?>
<!DOCTYPE svg PUBLIC "-//W3C//DTD SVG 1.1//EN" "http://www.w3.org/Graphics/SVG/1.1/DTD/svg11.dtd">
<!-- Creator: CorelDRAW X6 -->
<svg xmlns="http://www.w3.org/2000/svg" xml:space="preserve" width="100mm" height="30mm" version="1.1" style="shape-rendering:geometricPrecision; text-rendering:geometricPrecision; image-rendering:optimizeQuality; fill-rule:evenodd; clip-rule:evenodd"
viewBox="0 0 10000 3000"
 xmlns:xlink="http://www.w3.org/1999/xlink">
 <defs>
  <style type="text/css">
   <![CDATA[
    .fil0 {fill:#FEFEFE}
   ]]>
  </style>
 </defs>
 <g id="Layer_x0020_1">
  <metadata id="CorelCorpID_0Corel-Layer"/>
  <g id="_431660720">
   <path class="fil0" d="M758 1409c23,-26 54,-21 83,-19 56,4 112,4 168,2 36,-2 65,-16 88,-46 97,-123 195,-246 292,-368 11,-14 25,-23 43,-15 18,7 25,23 23,42 -1,14 -7,25 -14,37 -64,103 -128,207 -192,310 -4,6 -7,13 -11,19 -13,26 -9,40 16,54 30,16 63,23 95,33 12,3 15,-6 20,-13 31,-47 61,-93 91,-139 49,-78 102,-153 149,-232 8,-13 14,-26 19,-41 8,-24 1,-44 -19,-59 -15,-12 -33,-20 -51,-26 -178,-57 -355,-113 -533,-169 -8,-3 -16,-5 -25,-7 -33,-12 -44,-29 -42,-63 2,-43 27,-63 70,-55 67,13 135,26 202,39 171,33 342,67 514,99 59,12 108,-14 151,-49 48,-40 93,-82 140,-123 29,-25 57,-51 85,-77 10,-10 23,-16 37,-17 23,-2 37,11 39,34 1,22 -3,42 -14,61 -35,67 -69,134 -103,201 -5,10 -10,19 -13,29 -9,25 -2,44 21,60 27,18 59,23 89,32 8,2 14,-3 20,-7 93,-70 187,-139 280,-209 11,-8 21,-18 30,-29 15,-17 15,-29 -1,-47 -12,-13 -26,-24 -40,-35 -91,-70 -183,-141 -274,-212 -35,-26 -32,-66 6,-88 4,0 8,0 12,0 136,82 274,163 409,247 43,28 85,30 130,13 55,-21 109,-44 164,-66 4,-2 8,-4 13,-5 15,-4 32,-8 42,7 10,15 8,33 -5,48 -13,15 -28,29 -42,42 -27,25 -54,49 -80,74 -31,29 -30,43 5,69 54,40 109,80 163,120 14,10 20,21 20,38 -1,31 -22,49 -52,43 -16,-3 -31,-11 -46,-18 -68,-32 -137,-62 -205,-95 -51,-25 -100,-21 -149,3 -62,30 -119,69 -178,104 -23,14 -46,28 -74,45 33,10 60,17 86,25 10,3 19,5 28,8 19,8 34,20 37,41 4,24 -2,46 -22,62 -19,14 -42,22 -65,20 -86,-7 -172,-15 -258,-22 -55,-5 -109,-11 -164,-13 -71,-3 -126,33 -175,80 -56,55 -101,119 -150,179 -34,42 -67,84 -100,126 -14,17 -13,19 8,25 67,20 135,39 202,59 21,6 38,16 43,39 8,39 -16,62 -58,57 -24,-3 -47,-8 -70,-13 -67,-13 -134,-25 -200,-39 -19,-4 -29,2 -40,15 -38,49 -77,96 -115,144 -11,14 -23,25 -38,34 -20,12 -40,15 -60,3 -20,-11 -28,-31 -28,-53 0,-19 4,-37 14,-53 23,-35 47,-70 69,-106 11,-17 9,-22 -11,-23 -25,-1 -50,-2 -75,0 -31,3 -58,18 -80,40 -61,62 -123,124 -184,186 -2,2 -5,4 -7,6 -23,18 -48,21 -64,7 -14,-12 -14,-42 0,-65 36,-54 73,-109 109,-164 24,-36 20,-51 -20,-69 -42,-19 -85,-35 -128,-52 -18,-7 -35,-16 -48,-30 0,-11 0,-21 0,-32z"/>
   <path class="fil0" d="M6558 1884c-1,50 7,112 41,169 42,71 104,112 189,110 80,-2 136,-44 170,-114 52,-106 52,-215 15,-325 -17,-52 -49,-94 -97,-121 -88,-50 -203,-22 -264,64 -43,61 -54,131 -54,218zm-8 310c-5,10 -3,17 -3,24 0,106 0,213 0,320 0,30 -4,59 -16,87 -18,43 -56,66 -107,62 -51,-4 -76,-25 -89,-75 -4,-17 -7,-34 -7,-52 0,-347 0,-693 0,-1039 0,-62 32,-106 83,-115 76,-13 132,35 136,116 0,10 -2,20 3,29 8,-1 11,-8 15,-13 157,-188 408,-161 542,-23 70,72 107,160 119,259 14,117 7,232 -42,342 -61,139 -192,226 -338,229 -121,2 -210,-52 -285,-139 -3,-3 -5,-6 -9,-11z"/>
   <path class="fil0" d="M3995 1930c0,-51 0,-51 -40,-39 -3,1 -5,2 -8,2 -77,22 -156,34 -233,55 -33,9 -63,25 -84,53 -50,66 -7,166 78,185 44,10 87,6 129,-7 80,-27 135,-76 149,-163 5,-32 7,-63 8,-85zm226 -43c0,37 1,73 0,109 -3,64 8,125 27,185 4,11 6,23 9,34 12,50 -2,84 -45,110 -42,25 -86,22 -123,-11 -27,-24 -49,-53 -68,-84 -9,-14 -15,-14 -28,-5 -71,51 -145,96 -233,110 -82,13 -164,13 -240,-26 -96,-50 -146,-130 -143,-237 3,-108 64,-180 162,-221 64,-27 133,-33 200,-48 79,-17 157,-35 235,-57 16,-5 21,-12 18,-28 -4,-28 -8,-55 -18,-81 -10,-27 -27,-49 -54,-57 -76,-24 -151,-23 -225,7 -32,13 -56,38 -75,66 -12,19 -25,35 -36,55 -21,37 -65,40 -100,30 -39,-11 -64,-41 -65,-78 -2,-83 41,-140 106,-183 68,-46 145,-65 226,-71 86,-7 170,-5 254,15 125,30 186,98 207,226 13,80 6,161 8,241z"/>
   <path class="fil0" d="M8737 1874c0,-57 -7,-112 -29,-165 -35,-85 -108,-133 -197,-133 -89,0 -163,48 -196,132 -42,110 -43,221 1,330 32,79 92,125 178,131 81,5 147,-25 193,-95 40,-61 49,-130 50,-201zm-231 468c-94,3 -186,-21 -267,-77 -88,-60 -144,-144 -170,-248 -28,-111 -25,-220 12,-328 49,-143 149,-233 295,-270 107,-28 215,-24 320,16 112,42 192,119 236,229 58,148 57,296 -11,441 -65,138 -180,210 -328,233 -27,4 -54,4 -86,4z"/>
   <path class="fil0" d="M5736 2341c-78,3 -152,-9 -223,-40 -70,-31 -128,-75 -156,-150 -9,-24 -13,-48 -8,-74 7,-37 30,-60 65,-70 35,-9 69,-7 94,23 10,13 20,27 28,41 66,120 191,140 300,108 26,-8 47,-25 64,-46 27,-33 15,-98 -22,-124 -37,-26 -80,-38 -122,-50 -77,-20 -155,-40 -229,-71 -59,-24 -110,-59 -142,-115 -53,-92 -24,-219 63,-287 67,-53 144,-77 228,-81 72,-3 144,-1 214,20 70,21 134,51 178,112 19,26 32,56 28,89 -9,70 -92,105 -155,66 -28,-19 -49,-44 -69,-71 -65,-89 -204,-82 -264,-39 -46,32 -48,89 -3,123 37,29 82,38 126,50 77,21 155,35 228,66 39,17 76,37 109,65 70,60 84,137 66,223 -25,119 -108,180 -218,211 -58,17 -118,23 -178,21z"/>
   <path class="fil0" d="M4777 1404c93,-2 180,13 261,56 47,25 85,59 107,108 5,11 9,22 10,34 3,39 -6,74 -44,92 -41,19 -81,20 -119,-10 -20,-16 -36,-35 -51,-55 -63,-83 -152,-93 -242,-65 -13,4 -25,12 -36,21 -43,38 -40,90 7,122 33,23 71,33 108,43 78,22 157,35 232,66 57,23 110,52 149,102 34,43 46,92 41,147 -4,50 -17,97 -46,139 -32,46 -75,79 -127,98 -147,52 -295,57 -442,2 -64,-24 -118,-62 -152,-124 -15,-27 -24,-56 -24,-87 1,-40 25,-75 62,-86 40,-12 82,-5 106,31 20,30 37,62 63,88 32,33 70,53 115,60 55,9 109,10 161,-17 34,-17 60,-42 59,-84 -1,-43 -22,-74 -61,-92 -40,-19 -83,-31 -126,-42 -82,-21 -164,-42 -239,-83 -60,-32 -107,-77 -125,-146 -22,-89 18,-193 98,-249 77,-55 164,-73 255,-70z"/>
   <path class="fil0" d="M2392 1401c106,2 206,28 290,96 49,39 89,86 104,150 18,77 -51,140 -130,121 -25,-6 -39,-27 -54,-45 -27,-35 -51,-73 -86,-101 -69,-55 -186,-55 -255,1 -44,35 -72,81 -85,135 -24,92 -23,184 12,273 36,92 106,138 204,140 89,2 153,-43 198,-117 13,-21 24,-43 41,-61 33,-34 75,-44 113,-25 40,20 64,67 57,111 -7,44 -27,83 -55,117 -59,73 -138,113 -229,133 -104,23 -208,22 -309,-12 -133,-44 -218,-138 -257,-270 -35,-119 -32,-238 9,-356 55,-159 168,-250 332,-279 33,-6 67,-9 101,-8z"/>
   <path class="fil0" d="M7637 1535c22,-27 41,-54 64,-79 37,-40 84,-55 136,-55 56,1 108,16 156,46 46,29 64,76 48,122 -16,46 -64,72 -111,60 -33,-8 -64,-20 -98,-25 -68,-11 -122,18 -149,81 -22,50 -30,104 -34,158 -9,113 -3,226 -5,339 0,25 -2,49 -8,73 -13,52 -53,84 -103,85 -59,1 -98,-26 -114,-81 -6,-19 -8,-39 -8,-58 0,-216 0,-431 0,-647 0,-34 4,-69 20,-101 21,-40 56,-55 99,-53 44,2 77,22 92,66 8,22 11,44 15,68z"/>
   <path class="fil0" d="M2960 1699c0,-169 0,-338 0,-507 0,-25 3,-50 14,-74 21,-44 56,-62 113,-59 41,3 78,30 92,71 7,22 11,45 11,68 0,334 0,669 0,1003 0,41 -8,80 -39,111 -46,46 -150,43 -180,-41 -7,-21 -11,-42 -11,-64 0,-169 0,-339 0,-508z"/>
   <path class="fil0" d="M9154 1339c9,-34 18,-63 25,-92 5,-20 17,-26 36,-25 17,1 26,8 26,27 -1,46 0,91 0,137 0,11 -1,23 -15,23 -15,1 -19,-10 -19,-23 0,-33 0,-66 -3,-99 -7,29 -15,58 -22,87 -4,15 -5,35 -27,35 -22,0 -23,-20 -28,-35 -8,-29 -15,-58 -25,-86 0,29 0,58 0,87 0,6 0,13 -1,20 -2,9 -7,14 -16,15 -9,1 -15,-5 -18,-13 -2,-6 -2,-12 -2,-17 0,-42 0,-84 0,-125 0,-16 3,-29 22,-32 25,-3 36,3 42,24 8,29 16,58 25,93z"/>
   <path class="fil0" d="M2766 444c0,46 -29,77 -71,77 -38,-1 -68,-32 -68,-71 0,-47 30,-80 70,-80 39,1 69,33 69,75z"/>
   <path class="fil0" d="M8951 1327c0,-17 0,-35 0,-53 0,-13 -5,-20 -19,-19 -6,1 -12,0 -18,0 -10,-1 -19,-3 -19,-15 0,-12 8,-17 19,-17 14,-1 28,-1 42,-1 24,0 48,-1 71,0 11,1 22,3 22,17 0,14 -12,16 -23,16 -35,2 -35,2 -35,37 0,31 0,61 0,91 0,13 -3,25 -19,25 -15,1 -20,-11 -21,-24 -1,-19 0,-39 0,-58 0,0 0,0 -1,0z"/>
   <path class="fil0" d="M1751 695c-66,0 -116,-51 -116,-117 0,-74 50,-129 117,-129 66,1 116,54 116,123 0,70 -50,123 -118,123z"/>
   <path class="fil0" d="M921 1257c1,-47 28,-76 71,-75 38,1 68,33 67,72 -1,46 -32,80 -71,79 -39,-1 -68,-34 -67,-76z"/>
  </g>
 </g>
</svg>
