<?xml version="1.0" encoding="UTF-8"?>
<!DOCTYPE svg PUBLIC "-//W3C//DTD SVG 1.1//EN" "http://www.w3.org/Graphics/SVG/1.1/DTD/svg11.dtd">
<!-- Creator: CorelDRAW X6 -->
<svg xmlns="http://www.w3.org/2000/svg" xml:space="preserve" width="50mm" height="15mm" version="1.1" style="shape-rendering:geometricPrecision; text-rendering:geometricPrecision; image-rendering:optimizeQuality; fill-rule:evenodd; clip-rule:evenodd"
viewBox="0 0 5000 1500"
 xmlns:xlink="http://www.w3.org/1999/xlink">
 <defs>
  <style type="text/css">
   <![CDATA[
    .fil0 {fill:#252422}
    .fil62 {fill:#65B164}
    .fil63 {fill:#69B363}
    .fil64 {fill:#6CB363}
    .fil65 {fill:#6CB463}
    .fil67 {fill:#70B561}
    .fil66 {fill:#70B563}
    .fil68 {fill:#70B661}
    .fil69 {fill:#72B761}
    .fil3 {fill:#73CAF2}
    .fil70 {fill:#76B860}
    .fil71 {fill:#76B961}
    .fil73 {fill:#79BB61}
    .fil72 {fill:#7ABA60}
    .fil75 {fill:#7CBC5F}
    .fil74 {fill:#7CBC60}
    .fil1 {fill:#B0ADAB}
    .fil61 {fill:#D7335C}
    .fil56 {fill:#D93358}
    .fil57 {fill:#D93359}
    .fil58 {fill:#D9335A}
    .fil59 {fill:#D9335B}
    .fil60 {fill:#D9335C}
    .fil55 {fill:#DB3358}
    .fil52 {fill:#DB3657}
    .fil53 {fill:#DB3658}
    .fil54 {fill:#DB3659}
    .fil50 {fill:#DC3554}
    .fil51 {fill:#DC3556}
    .fil49 {fill:#DC3955}
    .fil46 {fill:#DD3953}
    .fil47 {fill:#DD3954}
    .fil48 {fill:#DD3955}
    .fil43 {fill:#DF3851}
    .fil44 {fill:#DF3852}
    .fil45 {fill:#DF3853}
    .fil41 {fill:#E13850}
    .fil42 {fill:#E13851}
    .fil36 {fill:#E13B4C}
    .fil37 {fill:#E13B4D}
    .fil38 {fill:#E13B4E}
    .fil39 {fill:#E13B4F}
    .fil40 {fill:#E13B50}
    .fil35 {fill:#E23A4C}
    .fil34 {fill:#E23E4B}
    .fil31 {fill:#E43D49}
    .fil32 {fill:#E43E4B}
    .fil33 {fill:#E43E4C}
    .fil29 {fill:#E53D47}
    .fil30 {fill:#E53D48}
    .fil26 {fill:#E73D45}
    .fil27 {fill:#E73D46}
    .fil28 {fill:#E73D47}
    .fil23 {fill:#E84043}
    .fil24 {fill:#E84044}
    .fil25 {fill:#E84046}
    .fil22 {fill:#FBC504}
    .fil21 {fill:#FBC604}
    .fil20 {fill:#FBC804}
    .fil19 {fill:#FCC904}
    .fil18 {fill:#FCCB04}
    .fil17 {fill:#FCCD03}
    .fil16 {fill:#FCCF03}
    .fil8 {fill:#FCDA01}
    .fil7 {fill:#FCDB01}
    .fil6 {fill:#FCDD01}
    .fil5 {fill:#FCDF01}
    .fil15 {fill:#FDD103}
    .fil14 {fill:#FDD203}
    .fil13 {fill:#FDD403}
    .fil12 {fill:#FDD503}
    .fil11 {fill:#FDD702}
    .fil10 {fill:#FDD801}
    .fil9 {fill:#FDDA01}
    .fil4 {fill:#FDE001}
    .fil2 {fill:#FEFEFE}
   ]]>
  </style>
 </defs>
 <g id="Layer_x0020_1">
  <metadata id="CorelCorpID_0Corel-Layer"/>
  <g id="_351272568">
   <path class="fil0" d="M4705 1455l-4409 0c-97,0 -176,-79 -176,-176l0 -1058c0,-97 79,-176 176,-176l4409 0c97,0 176,79 176,176l0 1058c0,97 -79,176 -176,176z"/>
   <path class="fil1" d="M4705 45l-4409 0c-97,0 -176,79 -176,176l0 1058c0,97 79,176 176,176l4409 0c97,0 176,-79 176,-176l0 -1058c0,-97 -79,-176 -176,-176zm0 28c82,0 148,66 148,148l0 1058c0,82 -66,148 -148,148l-4409 0c-82,0 -148,-66 -148,-148l0 -1058c0,-82 66,-148 148,-148l4409 0z"/>
   <path class="fil2" d="M1792 406c0,30 -9,53 -26,71 -20,21 -46,31 -78,31 -31,0 -57,-11 -78,-32 -21,-21 -32,-47 -32,-79 0,-31 11,-58 32,-79 21,-21 47,-32 78,-32 15,0 30,3 43,9 14,6 25,14 33,24l-19 19c-14,-17 -33,-25 -58,-25 -22,0 -42,8 -58,23 -16,16 -24,36 -24,61 0,25 8,45 24,61 16,16 36,23 58,23 24,0 43,-8 59,-24 10,-10 16,-25 18,-43l-77 0 0 -25 103 0c1,6 1,11 1,16l1 1z"/>
   <path class="fil2" d="M1792 406l-4 0c0,29 -8,51 -25,68l0 0 0 0c-19,20 -44,30 -75,30 -30,0 -55,-10 -75,-31 -21,-21 -31,-46 -31,-76 0,-31 10,-56 31,-76 21,-21 46,-31 75,-31 15,0 29,3 42,9 13,6 24,13 32,23l3 -2 -3 -2 -19 19 2 2 3 -2c-15,-18 -35,-26 -61,-26 -23,0 -43,8 -60,24 -17,16 -26,38 -25,64 0,26 8,47 25,64 17,16 37,25 60,24 24,0 45,-8 62,-25l0 0c11,-11 17,-26 19,-45l0 -4 -77 0 0 -18 99 0 0 -4 -3 1c1,5 1,10 1,15l4 0 4 0c0,-5 -1,-11 -2,-17l-1 -3 -109 0 0 29 0 4 80 0 0 -4 -4 0c-2,18 -7,31 -17,41l0 0c-15,15 -34,23 -57,23 -21,0 -40,-7 -55,-23 -16,-15 -23,-34 -23,-59 0,-24 8,-43 23,-59 16,-15 34,-22 55,-23 24,0 42,8 55,24l2 3 21 -21 2 -2 -2 -2c-9,-10 -20,-19 -34,-25 -14,-6 -29,-9 -45,-9 -31,0 -58,11 -80,33 -22,22 -33,49 -33,81 0,32 11,60 33,81 22,22 49,33 80,33 33,0 60,-11 80,-32l-3 -2 3 2c18,-18 27,-43 27,-73l-4 0 4 -1z"/>
   <polygon class="fil2" points="1954,318 1858,318 1858,385 1945,385 1945,410 1858,410 1858,477 1954,477 1954,503 1831,503 1831,292 1954,292 "/>
   <polygon class="fil2" points="1954,318 1954,314 1854,314 1854,388 1941,388 1941,407 1854,407 1854,481 1951,481 1951,500 1834,500 1834,295 1951,295 1951,318 1954,318 1954,314 1954,318 1958,318 1958,292 1958,288 1827,288 1827,507 1958,507 1958,477 1958,474 1861,474 1861,414 1948,414 1948,385 1948,381 1861,381 1861,321 1958,321 1958,318 "/>
   <polygon class="fil2" points="2069,503 2042,503 2042,318 1983,318 1983,292 2128,292 2128,318 2069,318 "/>
   <polygon class="fil2" points="2069,503 2069,500 2045,500 2045,314 1986,314 1986,295 2125,295 2125,314 2065,314 2065,503 2069,503 2069,500 2069,503 2072,503 2072,321 2132,321 2132,292 2132,288 1979,288 1979,318 1979,321 2038,321 2038,507 2069,507 2072,507 2072,503 "/>
   <polygon class="fil2" points="2233,503 2233,292 2260,292 2260,503 "/>
   <polygon class="fil2" points="2233,503 2237,503 2237,295 2257,295 2257,500 2233,500 2233,503 2237,503 2233,503 2233,507 2260,507 2264,507 2264,288 2233,288 2230,288 2230,507 2233,507 "/>
   <polygon class="fil2" points="2381,503 2354,503 2354,318 2295,318 2295,292 2440,292 2440,318 2381,318 "/>
   <polygon class="fil2" points="2381,503 2381,500 2357,500 2357,314 2298,314 2298,295 2437,295 2437,314 2378,314 2378,503 2381,503 2381,500 2381,503 2385,503 2385,321 2444,321 2444,292 2444,288 2291,288 2291,318 2291,321 2350,321 2350,507 2381,507 2385,507 2385,503 "/>
   <path class="fil2" d="M2580 458c16,16 35,24 58,24 23,0 42,-8 58,-24 16,-16 24,-36 24,-61 0,-25 -8,-45 -24,-61 -16,-16 -35,-24 -58,-24 -23,0 -42,8 -58,24 -16,16 -24,36 -24,61 0,25 8,45 24,61zm135 18c-21,21 -47,32 -78,32 -31,0 -57,-11 -78,-32 -21,-21 -31,-48 -31,-78 0,-31 10,-57 31,-78 21,-21 47,-32 78,-32 31,0 57,11 77,32 21,21 31,48 31,78 0,31 -10,57 -31,78l1 0z"/>
   <path class="fil2" d="M2580 458l-3 2c16,17 37,25 60,25 23,0 44,-8 60,-25 16,-17 25,-38 25,-63 0,-25 -8,-47 -25,-63l0 0c-16,-17 -37,-25 -60,-25 -23,0 -44,8 -60,25l0 0c-16,17 -25,38 -25,63 0,25 8,47 25,63l3 -2 3 -2c-15,-15 -22,-34 -22,-58 0,-24 8,-43 22,-58l0 0c15,-15 33,-23 55,-23 22,0 40,8 55,23l0 0c15,15 22,34 23,58 0,24 -8,43 -23,58 -15,15 -33,23 -55,23 -22,0 -40,-8 -55,-23l-3 2zm135 18l-3 -2c-20,21 -45,31 -75,31 -30,0 -55,-10 -75,-31l0 0 0 0c-20,-21 -30,-46 -30,-76 0,-30 10,-55 30,-76l0 0c20,-21 45,-31 75,-31 30,0 55,10 75,31 20,21 30,46 30,76 0,30 -10,55 -30,76l3 2 3 2c21,-22 32,-49 32,-81 0,-32 -11,-59 -32,-81 -22,-22 -48,-33 -80,-33 -32,0 -59,11 -80,33l0 0c-21,22 -32,49 -32,81 0,32 11,59 32,81l0 0 0 0c21,22 48,33 80,33 32,0 59,-11 80,-33l-3 -2z"/>
   <polygon class="fil2" points="2785,503 2785,292 2818,292 2921,456 2922,456 2921,416 2921,292 2948,292 2948,503 2920,503 2812,331 2811,331 2812,372 2812,503 "/>
   <polygon class="fil2" points="2785,503 2788,503 2788,295 2816,295 2919,460 2922,460 2926,460 2924,416 2924,295 2945,295 2945,500 2922,500 2814,327 2811,327 2807,327 2809,372 2809,500 2785,500 2785,503 2788,503 2785,503 2785,507 2812,507 2816,507 2816,372 2814,331 2811,331 2811,334 2812,334 2812,331 2809,333 2918,507 2948,507 2952,507 2952,288 2921,288 2917,288 2917,416 2919,457 2922,456 2922,453 2921,453 2921,456 2924,455 2820,288 2785,288 2781,288 2781,507 2785,507 "/>
   <path class="fil2" d="M3891 1102l66 0 0 -441 -66 0 0 441zm593 -282l-75 191 -2 0 -78 -191 -71 0 117 267 -67 149 69 0 181 -416 -73 0 -1 0zm-373 232c-22,0 -52,-11 -52,-37 0,-34 37,-47 70,-47 29,0 43,6 60,15 -5,41 -40,70 -78,70l0 -1zm8 -242c-48,0 -97,21 -117,68l58 24c12,-24 36,-32 60,-32 34,0 69,20 69,57l0 5c-12,-7 -37,-17 -69,-17 -63,0 -127,35 -127,99 0,59 52,97 110,97 44,0 69,-20 84,-43l2 0 0 34 64 0 0 -169c0,-78 -58,-122 -134,-122l0 -1zm-407 63l-94 0 0 -151 94 0c49,0 77,41 77,76 0,34 -28,76 -77,76l0 -1zm-2 -213l-158 0 0 441 66 0 0 -167 92 0c73,0 145,-53 145,-137 0,-84 -72,-137 -145,-137zm-860 391c-45,0 -84,-38 -84,-90 0,-53 38,-91 84,-91 45,0 80,39 80,91 0,52 -35,90 -80,90zm76 -207l-2 0c-15,-18 -43,-34 -79,-34 -75,0 -144,66 -144,151 0,84 69,149 144,149 36,0 64,-16 79,-34l2 0 0 22c0,57 -31,88 -80,88 -40,0 -65,-29 -76,-53l-57 24c16,40 60,89 133,89 77,0 143,-45 143,-156l0 -269 -63 0 0 24 0 -1zm108 257l66 0 0 -441 -66 0 0 441zm163 -146c-2,-58 45,-88 78,-88 26,0 48,13 56,32l-134 56zm205 -50c-12,-34 -51,-95 -128,-95 -77,0 -142,61 -142,150 0,84 64,150 149,150 69,0 109,-42 125,-67l-51 -34c-17,25 -40,41 -74,41 -34,0 -57,-15 -73,-45l201 -83 -7 -17 0 0zm-1598 -49l0 64 152 0c-5,36 -16,62 -35,80 -22,22 -57,47 -118,47 -94,0 -167,-76 -167,-169 0,-94 73,-169 167,-169 51,0 88,20 115,45l45 -45c-38,-36 -89,-64 -160,-64 -128,0 -236,105 -236,233 0,128 108,233 236,233 69,0 122,-23 163,-65 42,-42 55,-101 55,-149 0,-15 -1,-28 -3,-40l-214 0 0 -1zm391 195c-45,0 -85,-38 -85,-91 0,-54 39,-91 85,-91 45,0 85,37 85,91 0,53 -39,91 -85,91zm0 -241c-83,0 -151,63 -151,150 0,86 68,150 151,150 83,0 151,-64 151,-150 0,-87 -68,-150 -151,-150zm329 241c-45,0 -85,-38 -85,-91 0,-54 39,-91 85,-91 45,0 85,37 85,91 0,53 -39,91 -85,91zm0 -241c-83,0 -151,63 -151,150 0,86 68,150 151,150 83,0 151,-64 151,-150 0,-87 -68,-150 -151,-150z"/>
   <path class="fil3" d="M487 311c-10,11 -16,28 -16,50l0 780c0,22 6,39 16,50l3 3 437 -437 0 -5 0 -5 -437 -437 -3 3 0 -2z"/>
   <path class="fil4" d="M1216 818l0 -138 32 18c49,28 49,74 0,102l-32 18 0 0z"/>
   <polygon class="fil4" points="1212,820 1212,679 1216,681 1216,818 "/>
   <polygon class="fil4" points="1209,822 1209,677 1212,679 1212,820 "/>
   <polygon class="fil4" points="1206,824 1206,676 1209,677 1209,822 "/>
   <polygon class="fil5" points="1202,826 1202,674 1206,676 1206,824 "/>
   <polygon class="fil5" points="1199,828 1199,672 1202,674 1202,826 "/>
   <polygon class="fil5" points="1196,830 1196,670 1199,672 1199,828 "/>
   <polygon class="fil5" points="1192,832 1192,668 1196,670 1196,830 "/>
   <polygon class="fil6" points="1189,834 1189,666 1192,668 1192,832 "/>
   <polygon class="fil6" points="1186,835 1186,664 1189,666 1189,834 "/>
   <polygon class="fil6" points="1182,837 1182,662 1186,664 1186,835 "/>
   <polygon class="fil6" points="1179,839 1179,660 1182,662 1182,837 "/>
   <polygon class="fil6" points="1176,841 1176,659 1179,660 1179,839 "/>
   <polygon class="fil6" points="1172,843 1172,657 1176,659 1176,841 "/>
   <polygon class="fil7" points="1169,845 1169,655 1172,657 1172,843 "/>
   <polygon class="fil7" points="1166,847 1166,653 1169,655 1169,845 "/>
   <polygon class="fil7" points="1162,849 1162,651 1166,653 1166,847 "/>
   <polygon class="fil7" points="1159,851 1159,649 1162,651 1162,849 "/>
   <polygon class="fil8" points="1156,853 1156,647 1159,649 1159,851 "/>
   <polygon class="fil8" points="1152,854 1152,645 1156,647 1156,853 "/>
   <polygon class="fil8" points="1149,856 1149,643 1152,645 1152,854 "/>
   <polygon class="fil8" points="1146,858 1146,642 1149,643 1149,856 "/>
   <polygon class="fil9" points="1142,860 1142,640 1146,642 1146,858 "/>
   <polygon class="fil9" points="1139,862 1139,638 1142,640 1142,860 "/>
   <polygon class="fil10" points="1136,864 1136,636 1139,638 1139,862 "/>
   <polygon class="fil10" points="1132,866 1132,634 1136,636 1136,864 "/>
   <polygon class="fil10" points="1129,868 1129,632 1132,634 1132,866 "/>
   <polygon class="fil10" points="1126,870 1126,630 1129,632 1129,868 "/>
   <polygon class="fil11" points="1122,871 1122,628 1126,630 1126,870 "/>
   <polygon class="fil11" points="1119,873 1119,626 1122,628 1122,871 "/>
   <polygon class="fil11" points="1116,875 1116,624 1119,626 1119,873 "/>
   <polygon class="fil11" points="1112,877 1112,623 1116,624 1116,875 "/>
   <polygon class="fil11" points="1109,879 1109,621 1112,623 1112,877 "/>
   <polygon class="fil11" points="1106,881 1106,619 1109,621 1109,879 "/>
   <polygon class="fil12" points="1102,883 1102,617 1106,619 1106,881 "/>
   <polygon class="fil12" points="1099,885 1099,615 1102,617 1102,883 "/>
   <polygon class="fil12" points="1096,887 1096,613 1099,615 1099,885 "/>
   <polygon class="fil12" points="1092,888 1092,611 1096,613 1096,887 "/>
   <polygon class="fil13" points="1089,890 1089,609 1092,611 1092,888 "/>
   <polygon class="fil13" points="1086,892 1086,607 1089,609 1089,890 "/>
   <polygon class="fil13" points="1082,894 1082,606 1086,607 1086,892 "/>
   <polygon class="fil13" points="1079,896 1079,604 1082,606 1082,894 "/>
   <polygon class="fil13" points="1076,898 1076,602 1079,604 1079,896 "/>
   <polygon class="fil13" points="1072,900 1072,600 1075,601 1076,602 1076,898 1075,898 "/>
   <polygon class="fil14" points="1069,897 1069,602 1072,600 1072,600 1072,600 1072,900 1072,900 "/>
   <polygon class="fil14" points="1066,894 1066,606 1069,602 1069,897 "/>
   <polygon class="fil14" points="1062,891 1062,609 1066,606 1066,894 "/>
   <polygon class="fil14" points="1059,887 1059,612 1062,609 1062,891 "/>
   <polygon class="fil14" points="1056,884 1056,616 1059,612 1059,887 "/>
   <polygon class="fil14" points="1052,881 1052,619 1056,616 1056,884 "/>
   <polygon class="fil15" points="1049,877 1049,622 1052,619 1052,881 "/>
   <polygon class="fil15" points="1046,874 1046,626 1049,622 1049,877 "/>
   <polygon class="fil15" points="1042,871 1042,629 1046,626 1046,874 "/>
   <polygon class="fil15" points="1039,867 1039,632 1042,629 1042,871 "/>
   <polygon class="fil16" points="1036,864 1036,636 1039,632 1039,867 "/>
   <polygon class="fil16" points="1032,861 1032,639 1036,636 1036,864 "/>
   <polygon class="fil16" points="1029,857 1029,642 1032,639 1032,861 "/>
   <polygon class="fil16" points="1026,854 1026,646 1029,642 1029,857 "/>
   <polygon class="fil16" points="1022,851 1022,649 1026,646 1026,854 "/>
   <polygon class="fil16" points="1019,847 1019,652 1022,649 1022,851 "/>
   <polygon class="fil17" points="1016,844 1016,656 1019,652 1019,847 "/>
   <polygon class="fil17" points="1012,841 1012,659 1016,656 1016,844 "/>
   <polygon class="fil17" points="1009,837 1009,662 1012,659 1012,841 "/>
   <polygon class="fil17" points="1006,834 1006,666 1009,662 1009,837 "/>
   <polygon class="fil18" points="1002,831 1002,669 1006,666 1006,834 "/>
   <polygon class="fil18" points="999,827 999,672 1002,669 1002,831 "/>
   <polygon class="fil18" points="996,824 996,676 999,672 999,827 "/>
   <polygon class="fil18" points="992,821 992,679 996,676 996,824 "/>
   <polygon class="fil18" points="989,817 989,682 992,679 992,821 "/>
   <polygon class="fil18" points="986,814 986,686 989,682 989,817 "/>
   <polygon class="fil18" points="982,811 982,689 986,686 986,814 "/>
   <polygon class="fil19" points="979,807 979,692 982,689 982,811 "/>
   <polygon class="fil19" points="976,804 976,696 979,692 979,807 "/>
   <polygon class="fil19" points="972,801 972,699 976,696 976,804 "/>
   <polygon class="fil19" points="969,797 969,702 972,699 972,801 "/>
   <polygon class="fil20" points="966,794 966,706 969,702 969,797 "/>
   <polygon class="fil20" points="962,791 962,709 966,706 966,794 "/>
   <polygon class="fil20" points="959,787 959,712 962,709 962,791 "/>
   <polygon class="fil20" points="956,785 956,716 959,712 959,787 "/>
   <polygon class="fil20" points="952,782 952,719 956,716 956,785 "/>
   <polygon class="fil20" points="949,778 949,722 952,719 952,782 "/>
   <polygon class="fil20" points="946,775 946,726 949,722 949,778 "/>
   <polygon class="fil20" points="942,772 942,729 946,726 946,775 "/>
   <polygon class="fil21" points="939,768 939,732 942,729 942,772 "/>
   <polygon class="fil21" points="936,765 936,736 939,732 939,768 "/>
   <polygon class="fil21" points="932,762 932,739 936,736 936,765 "/>
   <polygon class="fil21" points="929,758 929,742 932,739 932,762 "/>
   <polygon class="fil22" points="929,742 929,758 926,756 926,750 926,745 "/>
   <polygon class="fil23" points="1067,903 920,757 926,750 1075,898 "/>
   <polygon class="fil23" points="1063,905 917,760 920,757 1067,903 "/>
   <polygon class="fil24" points="1059,907 913,763 917,760 1063,905 "/>
   <polygon class="fil24" points="1055,910 910,766 913,763 1059,907 "/>
   <polygon class="fil24" points="1051,912 907,769 910,766 1055,910 "/>
   <polygon class="fil24" points="1047,914 904,772 907,769 1051,912 "/>
   <polygon class="fil25" points="1043,917 901,776 904,772 1047,914 "/>
   <polygon class="fil25" points="1039,919 898,779 901,776 1043,917 "/>
   <polygon class="fil25" points="1035,921 895,782 898,779 1039,919 "/>
   <polygon class="fil25" points="1031,923 892,785 895,782 1035,921 "/>
   <polygon class="fil25" points="1027,926 888,787 892,785 1031,923 "/>
   <polygon class="fil26" points="1023,928 885,790 888,787 1027,926 "/>
   <polygon class="fil27" points="1019,930 882,793 885,790 1023,928 "/>
   <polygon class="fil27" points="1015,932 879,797 882,793 1019,930 "/>
   <polygon class="fil27" points="1011,935 876,800 879,797 1015,932 "/>
   <polygon class="fil27" points="1007,937 873,803 876,800 1011,935 "/>
   <polygon class="fil28" points="1003,939 870,806 873,803 1007,937 "/>
   <polygon class="fil28" points="999,942 866,809 870,806 1003,939 "/>
   <polygon class="fil28" points="995,944 863,812 866,809 999,942 "/>
   <polygon class="fil28" points="991,946 860,815 863,812 995,944 "/>
   <polygon class="fil28" points="987,948 857,818 860,815 991,946 "/>
   <polygon class="fil29" points="983,951 854,822 857,818 987,948 "/>
   <polygon class="fil30" points="979,953 851,825 854,822 983,951 "/>
   <polygon class="fil30" points="975,955 848,828 851,825 979,953 "/>
   <polygon class="fil31" points="971,957 845,831 848,828 975,955 "/>
   <polygon class="fil31" points="967,960 841,834 845,831 971,957 "/>
   <polygon class="fil31" points="963,962 838,837 841,834 967,960 "/>
   <polygon class="fil31" points="959,964 835,840 838,837 963,962 "/>
   <polygon class="fil31" points="955,967 832,844 835,840 959,964 "/>
   <polygon class="fil31" points="951,969 829,847 832,844 955,967 "/>
   <polygon class="fil31" points="947,971 826,850 829,847 951,969 "/>
   <polygon class="fil32" points="943,973 823,853 826,850 947,971 "/>
   <polygon class="fil32" points="939,976 819,856 823,853 943,973 "/>
   <polygon class="fil32" points="935,978 816,859 819,856 939,976 "/>
   <polygon class="fil32" points="931,980 813,862 816,859 935,978 "/>
   <polygon class="fil33" points="927,982 810,865 813,862 931,980 "/>
   <polygon class="fil33" points="923,985 807,869 810,865 927,982 "/>
   <polygon class="fil33" points="919,987 804,872 807,869 923,985 "/>
   <polygon class="fil33" points="915,989 801,875 804,872 919,987 "/>
   <polygon class="fil33" points="911,991 798,878 801,875 915,989 "/>
   <polygon class="fil34" points="907,994 794,881 798,878 911,991 "/>
   <polygon class="fil35" points="903,996 791,884 794,881 907,994 "/>
   <polygon class="fil35" points="899,998 788,887 791,884 903,996 "/>
   <polygon class="fil35" points="895,1001 785,891 788,887 899,998 "/>
   <polygon class="fil35" points="891,1003 782,894 785,891 895,1001 "/>
   <polygon class="fil35" points="887,1005 779,897 782,894 891,1003 "/>
   <polygon class="fil36" points="883,1007 776,900 779,897 887,1005 "/>
   <polygon class="fil37" points="879,1010 772,903 776,900 883,1007 "/>
   <polygon class="fil37" points="875,1012 769,906 772,903 879,1010 "/>
   <polygon class="fil37" points="871,1014 766,909 769,906 875,1012 "/>
   <polygon class="fil37" points="867,1016 763,912 766,909 871,1014 "/>
   <polygon class="fil38" points="863,1019 760,916 763,912 867,1016 "/>
   <polygon class="fil38" points="859,1021 757,919 760,916 863,1019 "/>
   <polygon class="fil38" points="855,1023 754,922 757,919 859,1021 "/>
   <polygon class="fil38" points="851,1026 751,925 754,922 855,1023 "/>
   <polygon class="fil38" points="847,1028 747,928 751,925 851,1026 "/>
   <polygon class="fil38" points="843,1030 744,931 747,928 847,1028 "/>
   <polygon class="fil39" points="839,1032 741,934 744,931 843,1030 "/>
   <polygon class="fil39" points="835,1035 738,938 741,934 839,1032 "/>
   <polygon class="fil39" points="831,1037 735,941 738,938 835,1035 "/>
   <polygon class="fil39" points="827,1039 732,944 735,941 831,1037 "/>
   <polygon class="fil40" points="823,1041 729,947 732,944 827,1039 "/>
   <polygon class="fil41" points="819,1044 725,950 729,947 823,1041 "/>
   <polygon class="fil41" points="815,1046 722,953 725,950 819,1044 "/>
   <polygon class="fil41" points="811,1048 719,956 722,953 815,1046 "/>
   <polygon class="fil41" points="807,1051 716,960 719,956 811,1048 "/>
   <polygon class="fil41" points="803,1053 713,963 716,960 807,1051 "/>
   <polygon class="fil42" points="799,1055 710,966 713,963 803,1053 "/>
   <polygon class="fil43" points="795,1057 707,969 710,966 799,1055 "/>
   <polygon class="fil43" points="791,1060 704,972 707,969 795,1057 "/>
   <polygon class="fil43" points="787,1062 700,975 704,972 791,1060 "/>
   <polygon class="fil44" points="783,1064 697,978 700,975 787,1062 "/>
   <polygon class="fil44" points="779,1066 694,981 697,978 783,1064 "/>
   <polygon class="fil44" points="775,1069 691,985 694,981 779,1066 "/>
   <polygon class="fil44" points="771,1071 688,988 691,985 775,1069 "/>
   <polygon class="fil44" points="767,1073 685,991 688,988 771,1071 "/>
   <polygon class="fil44" points="763,1076 682,994 685,991 767,1073 "/>
   <polygon class="fil45" points="759,1078 678,997 682,994 763,1076 "/>
   <polygon class="fil45" points="755,1080 675,1000 678,997 759,1078 "/>
   <polygon class="fil45" points="751,1082 672,1003 675,1000 755,1080 "/>
   <polygon class="fil46" points="747,1085 669,1007 672,1003 751,1082 "/>
   <polygon class="fil47" points="743,1087 666,1010 669,1007 747,1085 "/>
   <polygon class="fil47" points="739,1089 663,1013 666,1010 743,1087 "/>
   <polygon class="fil47" points="735,1091 660,1016 663,1013 739,1089 "/>
   <polygon class="fil47" points="731,1094 657,1019 660,1016 735,1091 "/>
   <polygon class="fil47" points="727,1096 653,1022 657,1019 731,1094 "/>
   <polygon class="fil48" points="723,1098 650,1025 653,1022 727,1096 "/>
   <polygon class="fil49" points="719,1100 647,1028 650,1025 723,1098 "/>
   <polygon class="fil49" points="715,1103 644,1032 647,1028 719,1100 "/>
   <polygon class="fil49" points="711,1105 641,1035 644,1032 715,1103 "/>
   <polygon class="fil49" points="707,1107 638,1038 641,1035 711,1105 "/>
   <polygon class="fil49" points="703,1110 635,1041 638,1038 707,1107 "/>
   <polygon class="fil49" points="699,1112 631,1044 635,1041 703,1110 "/>
   <polygon class="fil50" points="695,1114 628,1047 631,1044 699,1112 "/>
   <polygon class="fil50" points="691,1116 625,1050 628,1047 695,1114 "/>
   <polygon class="fil50" points="687,1119 622,1054 625,1050 691,1116 "/>
   <polygon class="fil51" points="683,1121 619,1057 622,1054 687,1119 "/>
   <polygon class="fil51" points="679,1123 616,1060 619,1057 683,1121 "/>
   <polygon class="fil51" points="675,1125 613,1063 616,1060 679,1123 "/>
   <polygon class="fil51" points="671,1128 610,1066 613,1063 675,1125 "/>
   <polygon class="fil51" points="667,1130 606,1069 610,1066 671,1128 "/>
   <polygon class="fil51" points="663,1132 603,1072 606,1069 667,1130 "/>
   <polygon class="fil52" points="659,1135 600,1075 603,1072 663,1132 "/>
   <polygon class="fil52" points="655,1137 597,1079 600,1075 659,1135 "/>
   <polygon class="fil52" points="651,1139 594,1082 597,1079 655,1137 "/>
   <polygon class="fil52" points="647,1141 591,1085 594,1082 651,1139 "/>
   <polygon class="fil53" points="643,1144 588,1088 591,1085 647,1141 "/>
   <polygon class="fil53" points="639,1146 584,1091 588,1088 643,1144 "/>
   <polygon class="fil53" points="635,1148 581,1094 584,1091 639,1146 "/>
   <polygon class="fil53" points="631,1150 578,1097 581,1094 635,1148 "/>
   <polygon class="fil53" points="627,1153 575,1101 578,1097 631,1150 "/>
   <polygon class="fil53" points="623,1155 572,1104 575,1101 627,1153 "/>
   <polygon class="fil54" points="619,1157 569,1107 572,1104 623,1155 "/>
   <polygon class="fil55" points="615,1160 566,1110 569,1107 619,1157 "/>
   <polygon class="fil55" points="611,1162 563,1113 566,1110 615,1160 "/>
   <polygon class="fil55" points="607,1164 559,1116 563,1113 611,1162 "/>
   <polygon class="fil56" points="603,1166 556,1119 559,1116 607,1164 "/>
   <polygon class="fil56" points="599,1169 553,1122 556,1119 603,1166 "/>
   <polygon class="fil56" points="595,1171 550,1126 553,1122 599,1169 "/>
   <polygon class="fil56" points="591,1173 547,1129 550,1126 595,1171 "/>
   <polygon class="fil56" points="587,1175 544,1132 547,1129 591,1173 "/>
   <polygon class="fil56" points="583,1178 541,1135 544,1132 587,1175 "/>
   <polygon class="fil57" points="579,1180 537,1138 541,1135 583,1178 "/>
   <polygon class="fil57" points="575,1182 534,1141 537,1138 579,1180 "/>
   <polygon class="fil57" points="571,1184 531,1144 534,1141 575,1182 "/>
   <polygon class="fil57" points="567,1187 528,1148 531,1144 571,1184 "/>
   <polygon class="fil58" points="563,1189 525,1151 528,1148 567,1187 "/>
   <polygon class="fil58" points="559,1191 522,1154 525,1151 563,1189 560,1191 "/>
   <path class="fil58" d="M555 1193l-37 -37 3 -3 38 38c-1,1 -3,1 -4,2z"/>
   <path class="fil58" d="M551 1196l-35 -35 3 -3 37 37c-1,1 -3,1 -4,2l-1 -1z"/>
   <path class="fil58" d="M547 1197l-34 -34 3 -3 35 35c-1,1 -3,1 -4,2z"/>
   <path class="fil58" d="M542 1199l-33 -33 3 -3 34 34c-2,1 -3,1 -5,2l1 0z"/>
   <path class="fil59" d="M537 1200l-31 -31 3 -3 33 33c-2,1 -3,1 -5,1z"/>
   <path class="fil59" d="M532 1202l-29 -29 3 -3 31 31c-2,0 -3,1 -5,1z"/>
   <path class="fil59" d="M526 1202l-27 -27 3 -3 29 29c-2,0 -4,1 -5,1z"/>
   <path class="fil60" d="M521 1203l-24 -24 3 -3 27 27c-2,0 -4,0 -6,0z"/>
   <path class="fil61" d="M514 1202l-20 -20 3 -3 24 24c-2,0 -5,0 -7,0l0 -1z"/>
   <path class="fil61" d="M506 1200l-15 -15 3 -3 20 20c-3,0 -5,-1 -8,-2z"/>
   <path class="fil61" d="M493 1194l-6 -6 3 -3 15 15c-5,-1 -9,-3 -12,-6z"/>
   <path class="fil61" d="M487 1188l6 6c-2,-2 -4,-4 -6,-6l0 0z"/>
   <path class="fil62" d="M495 304l-7 7 -1 -1c2,-3 5,-5 8,-7l0 1z"/>
   <path class="fil63" d="M505 300l-15 15 -3 -3 7 -7c3,-2 6,-4 10,-5l1 0z"/>
   <path class="fil63" d="M512 298l-19 19 -3 -3 15 -15c2,-1 5,-1 7,-2l0 1z"/>
   <path class="fil63" d="M517 297l-22 22 -3 -3 19 -19c2,0 4,-1 6,-1l0 1z"/>
   <path class="fil63" d="M523 297l-25 25 -3 -3 22 -22c2,0 3,0 5,0l1 0z"/>
   <path class="fil63" d="M527 297l-27 27 -3 -3 25 -25c2,0 3,0 5,0l0 1z"/>
   <path class="fil63" d="M532 298l-29 29 -3 -3 27 -27c1,0 3,0 4,1l1 0z"/>
   <path class="fil63" d="M536 299l-31 31 -3 -3 29 -29c1,0 3,1 4,1l1 0z"/>
   <path class="fil63" d="M540 300l-32 32 -3 -3 31 -31c1,0 3,1 4,1l0 1z"/>
   <path class="fil63" d="M544 301l-33 33 -3 -3 32 -32c1,0 3,1 4,1l0 1z"/>
   <path class="fil63" d="M548 303l-35 34 -3 -3 33 -33c1,0 2,1 4,1l1 1z"/>
   <polygon class="fil63" points="551,304 516,340 513,337 548,303 "/>
   <polygon class="fil63" points="555,306 518,342 516,340 551,304 "/>
   <polygon class="fil63" points="558,308 521,345 518,342 555,306 "/>
   <polygon class="fil63" points="561,310 523,347 521,345 558,308 560,309 "/>
   <polygon class="fil64" points="565,311 526,350 523,347 561,310 "/>
   <polygon class="fil64" points="568,313 528,353 526,350 565,311 "/>
   <polygon class="fil64" points="571,315 531,355 528,353 568,313 "/>
   <polygon class="fil65" points="574,317 534,358 531,355 571,315 "/>
   <polygon class="fil65" points="578,319 536,360 534,358 574,317 "/>
   <polygon class="fil65" points="581,321 539,363 536,360 578,319 "/>
   <polygon class="fil65" points="584,322 541,365 539,363 581,321 "/>
   <polygon class="fil65" points="587,324 544,368 541,365 584,322 "/>
   <polygon class="fil65" points="591,326 546,371 544,368 587,324 "/>
   <polygon class="fil66" points="594,328 549,373 546,371 591,326 "/>
   <polygon class="fil66" points="597,330 551,376 549,373 594,328 "/>
   <polygon class="fil66" points="600,332 554,378 551,376 597,330 "/>
   <polygon class="fil66" points="604,334 557,381 554,378 600,332 "/>
   <polygon class="fil66" points="607,335 559,383 557,381 604,334 "/>
   <polygon class="fil67" points="610,337 562,386 559,383 607,335 "/>
   <polygon class="fil67" points="613,339 564,388 562,386 610,337 "/>
   <polygon class="fil67" points="617,341 567,391 564,388 613,339 "/>
   <polygon class="fil67" points="620,343 569,394 567,391 617,341 "/>
   <polygon class="fil67" points="623,345 572,396 569,394 620,343 "/>
   <polygon class="fil68" points="627,347 574,399 572,396 623,345 "/>
   <polygon class="fil68" points="630,348 577,401 574,399 627,347 "/>
   <polygon class="fil68" points="633,350 580,404 577,401 630,348 "/>
   <polygon class="fil68" points="636,352 582,406 580,404 633,350 "/>
   <polygon class="fil68" points="640,354 585,409 582,406 636,352 "/>
   <polygon class="fil68" points="643,356 587,411 585,409 640,354 "/>
   <polygon class="fil69" points="646,358 590,414 587,411 643,356 "/>
   <polygon class="fil69" points="649,360 592,417 590,414 646,358 "/>
   <polygon class="fil69" points="653,361 595,419 592,417 649,360 "/>
   <polygon class="fil69" points="656,363 598,422 595,419 653,361 "/>
   <polygon class="fil69" points="659,365 600,424 598,422 656,363 "/>
   <polygon class="fil69" points="662,367 603,427 600,424 659,365 "/>
   <polygon class="fil69" points="666,369 605,429 603,427 662,367 "/>
   <polygon class="fil69" points="669,371 608,432 605,429 666,369 "/>
   <polygon class="fil69" points="672,373 610,434 608,432 669,371 "/>
   <polygon class="fil69" points="675,374 613,437 610,434 672,373 "/>
   <polygon class="fil69" points="679,376 615,440 613,437 675,374 "/>
   <polygon class="fil70" points="682,378 618,442 615,440 679,376 "/>
   <polygon class="fil70" points="685,380 621,445 618,442 682,378 "/>
   <polygon class="fil70" points="689,382 623,447 621,445 685,380 "/>
   <polygon class="fil70" points="692,384 626,450 623,447 689,382 "/>
   <polygon class="fil70" points="695,386 628,452 626,450 692,384 "/>
   <polygon class="fil70" points="698,387 631,455 628,452 695,386 "/>
   <polygon class="fil70" points="702,389 633,458 631,455 698,387 "/>
   <polygon class="fil70" points="705,391 636,460 633,458 702,389 "/>
   <polygon class="fil70" points="708,393 638,463 636,460 705,391 "/>
   <polygon class="fil71" points="711,395 641,465 638,463 708,393 "/>
   <polygon class="fil71" points="715,397 644,468 641,465 711,395 "/>
   <polygon class="fil71" points="718,399 646,470 644,468 715,397 "/>
   <polygon class="fil71" points="721,400 649,473 646,470 718,399 "/>
   <polygon class="fil71" points="724,402 651,475 649,473 721,400 "/>
   <polygon class="fil71" points="728,404 654,478 651,475 724,402 "/>
   <polygon class="fil71" points="731,406 656,481 654,478 728,404 "/>
   <polygon class="fil71" points="734,408 659,483 656,481 731,406 "/>
   <polygon class="fil71" points="737,410 661,486 659,483 734,408 "/>
   <polygon class="fil72" points="741,412 664,488 661,486 737,410 "/>
   <polygon class="fil72" points="744,413 667,491 664,488 741,412 "/>
   <polygon class="fil72" points="747,415 669,493 667,491 744,413 "/>
   <polygon class="fil72" points="751,417 672,496 669,493 747,415 "/>
   <polygon class="fil72" points="754,419 674,498 672,496 751,417 "/>
   <polygon class="fil72" points="757,421 677,501 674,498 754,419 "/>
   <polygon class="fil72" points="760,423 679,504 677,501 757,421 "/>
   <polygon class="fil72" points="764,424 682,506 679,504 760,423 "/>
   <polygon class="fil72" points="767,426 685,509 682,506 764,424 "/>
   <polygon class="fil72" points="770,428 687,511 685,509 767,426 "/>
   <polygon class="fil72" points="773,430 690,514 687,511 770,428 "/>
   <polygon class="fil72" points="777,432 692,516 690,514 773,430 "/>
   <polygon class="fil73" points="780,434 695,519 692,516 777,432 "/>
   <polygon class="fil73" points="783,436 697,521 695,519 780,434 "/>
   <polygon class="fil74" points="786,437 700,524 697,521 783,436 "/>
   <polygon class="fil74" points="790,439 702,527 700,524 786,437 "/>
   <polygon class="fil74" points="793,441 705,529 702,527 790,439 "/>
   <polygon class="fil74" points="796,443 708,532 705,529 793,441 "/>
   <polygon class="fil74" points="799,445 710,534 708,532 796,443 "/>
   <polygon class="fil74" points="803,447 713,537 710,534 799,445 "/>
   <polygon class="fil74" points="806,449 715,539 713,537 803,447 "/>
   <polygon class="fil74" points="809,450 718,542 715,539 806,449 "/>
   <polygon class="fil74" points="813,452 720,544 718,542 809,450 "/>
   <polygon class="fil74" points="816,454 723,547 720,544 813,452 "/>
   <polygon class="fil74" points="819,456 725,550 723,547 816,454 "/>
   <polygon class="fil75" points="822,458 728,552 725,550 819,456 "/>
   <polygon class="fil75" points="826,460 731,555 728,552 822,458 "/>
   <polygon class="fil75" points="829,462 733,557 731,555 826,460 "/>
   <polygon class="fil75" points="832,463 736,560 733,557 829,462 "/>
   <polygon class="fil75" points="835,465 738,562 736,560 832,463 "/>
   <polygon class="fil75" points="839,467 741,565 738,562 835,465 "/>
   <polygon class="fil75" points="842,469 743,568 741,565 839,467 "/>
   <polygon class="fil75" points="845,471 746,570 743,568 842,469 "/>
   <polygon class="fil75" points="848,473 748,573 746,570 845,471 "/>
   <polygon class="fil75" points="852,475 751,575 748,573 848,473 "/>
   <polygon class="fil75" points="855,476 754,578 751,575 852,475 "/>
   <polygon class="fil75" points="858,478 756,580 754,578 855,476 "/>
   <polygon class="fil75" points="861,480 759,583 756,580 858,478 "/>
   <polygon class="fil75" points="865,482 761,585 759,583 861,480 "/>
   <polygon class="fil75" points="868,484 764,588 761,585 865,482 "/>
   <polygon class="fil75" points="871,486 766,591 764,588 868,484 "/>
   <polygon class="fil75" points="875,488 769,593 766,591 871,486 "/>
   <polygon class="fil75" points="769,593 875,488 1075,601 926,750 "/>
  </g>
 </g>
</svg>
